<svg width="2505" height="2505" viewBox="0 0 2505 2505" fill="none" xmlns="http://www.w3.org/2000/svg">
<mask id="mask0_1873_2" style="mask-type:alpha" maskUnits="userSpaceOnUse" x="518" y="475" width="1296" height="1296">
<rect x="518.276" y="475.086" width="1295.69" height="1295.69" fill="#2F6AA2"/>
</mask>
<g mask="url(#mask0_1873_2)">
<path d="M1166.12 1500.84C1225.51 1500.84 1276.34 1479.7 1318.63 1437.41C1360.92 1395.12 1382.07 1344.28 1382.07 1284.89V1068.94C1382.07 1009.56 1360.92 958.72 1318.63 916.431C1276.34 874.141 1225.51 852.996 1166.12 852.996C1106.74 852.996 1055.9 874.141 1013.61 916.431C971.317 958.72 950.173 1009.56 950.173 1068.94V1284.89C950.173 1344.28 971.317 1395.12 1013.61 1437.41C1055.9 1479.7 1106.74 1500.84 1166.12 1500.84ZM1058.15 1338.88H1274.09V1230.91H1058.15V1338.88ZM1058.15 1122.93H1274.09V1014.96H1058.15V1122.93ZM1166.12 1608.81C1107.63 1608.81 1053.42 1594.42 1003.48 1565.63C953.547 1536.83 914.181 1497.24 885.388 1446.85H734.224V1338.88H847.597C844.898 1320.88 843.323 1302.89 842.873 1284.89C842.423 1266.9 842.198 1248.9 842.198 1230.91H734.224V1122.93H842.198C842.198 1104.94 842.423 1086.94 842.873 1068.94C843.323 1050.95 844.898 1032.95 847.597 1014.96H734.224V906.983H885.388C897.985 886.288 912.157 866.942 927.903 848.947C943.649 830.951 961.87 815.205 982.565 801.708L896.185 712.629L971.767 637.047L1087.84 753.12C1113.03 745.022 1138.68 740.973 1164.77 740.973C1190.86 740.973 1216.51 745.022 1241.7 753.12L1360.47 637.047L1436.06 712.629L1346.98 801.708C1367.67 815.205 1386.34 830.726 1402.99 848.272C1419.64 865.818 1434.26 885.388 1446.85 906.983H1598.02V1014.96H1484.64C1487.34 1032.95 1488.92 1050.95 1489.37 1068.94C1489.82 1086.94 1490.04 1104.94 1490.04 1122.93H1598.02V1230.91H1490.04C1490.04 1248.9 1489.82 1266.9 1489.37 1284.89C1488.92 1302.89 1487.34 1320.88 1484.64 1338.88H1598.02V1446.85H1446.85C1418.06 1497.24 1378.69 1536.83 1328.76 1565.63C1278.82 1594.42 1224.61 1608.81 1166.12 1608.81Z" fill="#2F6AA2"/>
</g>
<mask id="mask1_1873_2" style="mask-type:alpha" maskUnits="userSpaceOnUse" x="0" y="0" width="2505" height="2505">
<rect width="2505" height="2505" fill="#D9D9D9"/>
</mask>
<g mask="url(#mask1_1873_2)">
<path d="M1148.12 1878.75C1349.92 1878.75 1522.14 1807.86 1664.78 1666.09C1807.43 1524.31 1878.75 1351.66 1878.75 1148.12C1878.75 946.333 1807.43 774.115 1664.78 631.469C1522.14 488.823 1349.92 417.5 1148.12 417.5C944.594 417.5 771.94 488.823 630.164 631.469C488.388 774.115 417.5 946.333 417.5 1148.12C417.5 1351.66 488.388 1524.31 630.164 1666.09C771.94 1807.86 944.594 1878.75 1148.12 1878.75ZM1148.12 2087.5C1017.66 2087.5 895.45 2062.71 781.508 2013.13C667.565 1963.55 568.409 1896.58 484.039 1812.21C399.669 1727.84 332.695 1628.68 283.117 1514.74C233.539 1400.8 208.75 1278.59 208.75 1148.12C208.75 1019.4 233.539 898.06 283.117 784.117C332.695 670.174 399.669 570.583 484.039 485.344C568.409 400.104 667.565 332.695 781.508 283.117C895.45 233.539 1017.66 208.75 1148.12 208.75C1276.85 208.75 1398.19 233.539 1512.13 283.117C1626.08 332.695 1725.67 400.104 1810.91 485.344C1896.15 570.583 1963.55 670.174 2013.13 784.117C2062.71 898.06 2087.5 1019.4 2087.5 1148.12C2087.5 1259.46 2069.23 1364.7 2032.7 1463.86C1996.17 1563.02 1945.72 1653.47 1881.36 1735.23L2296.25 2150.12L2147.52 2296.25L1732.62 1883.97C1650.86 1948.33 1560.41 1998.35 1461.25 2034.01C1362.09 2069.67 1257.72 2087.5 1148.12 2087.5Z" fill="#2F6AA2"/>
</g>
</svg>
